<mxfile host="app.diagrams.net" modified="2021-06-04T16:20:43.885Z" agent="5.0 (Windows NT 10.0; Win64; x64) AppleWebKit/537.36 (KHTML, like Gecko) Chrome/91.0.4472.77 Safari/537.36" etag="j0icIuHhCzxbCmieDb6k" version="14.7.6" type="github">
  <diagram id="3P6AJ905jPFfpcEk_vf2" name="Page-1">
    <mxGraphModel dx="625" dy="669" grid="1" gridSize="10" guides="1" tooltips="1" connect="0" arrows="1" fold="1" page="1" pageScale="1" pageWidth="1169" pageHeight="827" math="0" shadow="0">
      <root>
        <mxCell id="0" />
        <mxCell id="1" parent="0" />
        <mxCell id="HtpCzGwvKAmp6WzLC3R8-2" style="edgeStyle=orthogonalEdgeStyle;orthogonalLoop=1;jettySize=auto;html=1;exitX=1;exitY=0.5;exitDx=0;exitDy=0;entryX=0;entryY=0.5;entryDx=0;entryDy=0;curved=1;" edge="1" parent="1" source="xV66GVxuZwJh4t1k1VeD-1" target="HtpCzGwvKAmp6WzLC3R8-1">
          <mxGeometry relative="1" as="geometry" />
        </mxCell>
        <mxCell id="xV66GVxuZwJh4t1k1VeD-1" value="&lt;font style=&quot;font-size: 14px&quot;&gt;&lt;b&gt;Skydive Agent 1&lt;/b&gt;&lt;/font&gt;&lt;br&gt;&lt;br&gt;(ablecube1)" style="rounded=1;whiteSpace=wrap;html=1;fillColor=#fff2cc;strokeColor=#d6b656;" parent="1" vertex="1">
          <mxGeometry x="40" y="180" width="120" height="60" as="geometry" />
        </mxCell>
        <mxCell id="HtpCzGwvKAmp6WzLC3R8-3" style="edgeStyle=orthogonalEdgeStyle;orthogonalLoop=1;jettySize=auto;html=1;exitX=1;exitY=0.5;exitDx=0;exitDy=0;entryX=0;entryY=0.5;entryDx=0;entryDy=0;curved=1;" edge="1" parent="1" source="xV66GVxuZwJh4t1k1VeD-2" target="HtpCzGwvKAmp6WzLC3R8-1">
          <mxGeometry relative="1" as="geometry" />
        </mxCell>
        <mxCell id="xV66GVxuZwJh4t1k1VeD-2" value="&lt;font style=&quot;font-size: 14px&quot;&gt;&lt;b&gt;Skydive Agent 2&lt;/b&gt;&lt;/font&gt;&lt;br&gt;&lt;br&gt;(ablecube2)" style="rounded=1;whiteSpace=wrap;html=1;fillColor=#fff2cc;strokeColor=#d6b656;" parent="1" vertex="1">
          <mxGeometry x="40" y="260" width="120" height="60" as="geometry" />
        </mxCell>
        <mxCell id="HtpCzGwvKAmp6WzLC3R8-4" style="edgeStyle=orthogonalEdgeStyle;orthogonalLoop=1;jettySize=auto;html=1;exitX=1;exitY=0.5;exitDx=0;exitDy=0;entryX=0;entryY=0.5;entryDx=0;entryDy=0;curved=1;" edge="1" parent="1" source="xV66GVxuZwJh4t1k1VeD-3" target="HtpCzGwvKAmp6WzLC3R8-1">
          <mxGeometry relative="1" as="geometry" />
        </mxCell>
        <mxCell id="xV66GVxuZwJh4t1k1VeD-3" value="&lt;font style=&quot;font-size: 14px&quot;&gt;&lt;b&gt;Skydive Agent 3&lt;/b&gt;&lt;/font&gt;&lt;br&gt;&lt;br&gt;(ablecube3)" style="rounded=1;whiteSpace=wrap;html=1;fillColor=#fff2cc;strokeColor=#d6b656;" parent="1" vertex="1">
          <mxGeometry x="40" y="340" width="120" height="60" as="geometry" />
        </mxCell>
        <mxCell id="HtpCzGwvKAmp6WzLC3R8-6" value="" style="edgeStyle=orthogonalEdgeStyle;curved=1;orthogonalLoop=1;jettySize=auto;html=1;" edge="1" parent="1" source="HtpCzGwvKAmp6WzLC3R8-1" target="HtpCzGwvKAmp6WzLC3R8-5">
          <mxGeometry relative="1" as="geometry" />
        </mxCell>
        <mxCell id="HtpCzGwvKAmp6WzLC3R8-1" value="&lt;font style=&quot;font-size: 14px&quot;&gt;&lt;b&gt;Skydive Analyzer&lt;/b&gt;&lt;/font&gt;&lt;br&gt;&lt;br&gt;(vm)" style="rounded=1;whiteSpace=wrap;html=1;fillColor=#f8cecc;strokeColor=#b85450;" vertex="1" parent="1">
          <mxGeometry x="310" y="240" width="120" height="100" as="geometry" />
        </mxCell>
        <mxCell id="HtpCzGwvKAmp6WzLC3R8-5" value="&lt;font style=&quot;font-size: 14px&quot;&gt;&lt;b&gt;Topology&lt;/b&gt;&lt;/font&gt;" style="rounded=1;whiteSpace=wrap;html=1;fillColor=#dae8fc;strokeColor=#6c8ebf;dashed=1;" vertex="1" parent="1">
          <mxGeometry x="465" y="300" width="120" height="60" as="geometry" />
        </mxCell>
      </root>
    </mxGraphModel>
  </diagram>
</mxfile>
